<svg width="819" height="202" viewBox="0 0 819 202" fill="none" xmlns="http://www.w3.org/2000/svg">
<path d="M771.092 46.2956C771.092 46.2956 784.603 36.814 782.565 31.0035C781.325 27.4679 778.626 26.2349 775.141 27.612C769.415 29.8751 771.092 46.2956 771.092 46.2956Z" fill="url(#paint0_linear_357_17797)"/>
<path d="M757.689 75.6355C757.689 75.6355 770.222 57.3342 771.288 50.3319C771.936 46.0711 770.71 45.5107 767.913 48.7904C763.318 54.1802 757.689 75.6355 757.689 75.6355Z" fill="url(#paint1_linear_357_17797)"/>
<circle cx="782.096" cy="22.2105" r="5.29588" transform="rotate(24.553 782.096 22.2105)" fill="url(#paint2_linear_357_17797)"/>
<ellipse cx="796.384" cy="33.2442" rx="6.01804" ry="18.0541" transform="rotate(94.661 796.384 33.2442)" fill="url(#paint3_linear_357_17797)"/>
<ellipse rx="6.01804" ry="18.0541" transform="matrix(-0.700224 0.713923 0.713923 0.700224 764.416 18.64)" fill="url(#paint4_linear_357_17797)"/>
<ellipse cx="787.28" cy="45.0409" rx="4.81443" ry="14.4433" transform="rotate(127.905 787.28 45.0409)" fill="url(#paint5_linear_357_17797)"/>
<ellipse rx="4.81443" ry="14.4433" transform="matrix(-0.194249 0.980952 0.980952 0.194249 761.443 33.2376)" fill="url(#paint6_linear_357_17797)"/>
<path fill-rule="evenodd" clip-rule="evenodd" d="M617.91 106.954L620.658 90.3636H604.733L605.623 85.0234C606.141 82.3273 607.143 80.2362 608.63 78.7499C610.151 77.2291 612.518 76.4687 615.733 76.4687C617.081 76.4687 618.36 76.5896 619.569 76.8316C620.779 77.0735 621.799 77.3328 622.628 77.6093L629.213 61.0184C627.969 60.6036 625.964 60.137 623.199 59.6185C620.468 59.1001 617.409 58.8408 614.022 58.8408C609.044 58.8408 604.413 59.7913 600.127 61.6924C595.875 63.5934 592.298 66.445 589.395 70.2471C586.526 74.0492 584.625 78.8363 583.692 84.6086L582.731 90.3636H571.508L568.76 106.954H579.96L569.434 170H591.469L601.97 106.954H617.91ZM38.1591 170H0L17.6278 63.8181H55.0611C65.7415 63.8181 74.6072 65.9957 81.6584 70.3508C88.7441 74.7059 93.7386 80.9448 96.642 89.0674C99.5455 97.1555 100.064 106.816 98.1974 118.05C96.4001 128.903 92.8227 138.218 87.4652 145.995C82.1077 153.737 75.2467 159.682 66.8821 163.83C58.5175 167.943 48.9432 170 38.1591 170ZM25.6641 150.765H39.4553C46.1262 150.765 51.9676 149.521 56.9794 147.032C62.0258 144.543 66.1563 140.707 69.3707 135.522C72.6198 130.337 74.9183 123.701 76.2663 115.613C77.5452 107.94 77.4588 101.718 76.0071 96.9481C74.59 92.1436 71.8421 88.6353 67.7635 86.4232C63.6849 84.1765 58.3274 83.0532 51.6911 83.0532H36.9148L25.6641 150.765ZM113.106 170L126.379 90.3636H147.791L145.458 104.258H146.288C148.569 99.3157 151.628 95.5828 155.465 93.0596C159.336 90.5018 163.501 89.2229 167.96 89.2229C169.066 89.2229 170.224 89.2921 171.433 89.4303C172.678 89.534 173.784 89.7068 174.752 89.9488L171.433 109.599C170.466 109.253 169.083 108.976 167.286 108.769C165.523 108.527 163.846 108.406 162.257 108.406C159.042 108.406 156.052 109.115 153.287 110.532C150.522 111.914 148.189 113.85 146.288 116.339C144.421 118.827 143.194 121.696 142.607 124.945L135.193 170H113.106ZM187.249 168.859C190.948 170.622 195.32 171.503 200.366 171.503C204.307 171.503 207.867 170.985 211.047 169.948C214.227 168.877 217.044 167.408 219.498 165.541C221.952 163.64 224.026 161.445 225.719 158.957H226.341L224.475 170H245.421L254.39 116.287C255.151 111.552 254.892 107.49 253.613 104.103C252.368 100.681 250.329 97.8813 247.495 95.7038C244.695 93.5262 241.36 91.9189 237.488 90.882C233.652 89.8451 229.521 89.3266 225.097 89.3266C218.703 89.3266 212.931 90.2944 207.78 92.23C202.63 94.1311 198.223 96.8617 194.56 100.422C190.93 103.947 188.217 108.13 186.42 112.969L206.536 114.628C207.711 111.966 209.664 109.771 212.395 108.043C215.16 106.315 218.513 105.451 222.453 105.451C226.186 105.451 228.899 106.367 230.593 108.199C232.321 109.996 232.926 112.519 232.408 115.768V116.079C232.096 117.773 231.215 119.052 229.763 119.916C228.312 120.746 226.117 121.385 223.179 121.834C220.275 122.284 216.508 122.75 211.876 123.234C207.867 123.58 203.978 124.237 200.211 125.204C196.478 126.172 193.073 127.572 189.997 129.404C186.921 131.236 184.311 133.655 182.168 136.663C180.06 139.635 178.625 143.333 177.865 147.758C177.001 152.977 177.433 157.349 179.161 160.875C180.889 164.4 183.585 167.062 187.249 168.859ZM218.098 154.342C215.402 155.621 212.447 156.261 209.232 156.261C205.81 156.261 203.132 155.483 201.196 153.927C199.295 152.338 198.586 150.039 199.07 147.032C199.381 144.958 200.194 143.23 201.507 141.847C202.82 140.43 204.531 139.307 206.64 138.477C208.748 137.648 211.133 137.043 213.795 136.663C215.004 136.455 216.37 136.248 217.89 136.04C219.411 135.798 220.915 135.539 222.401 135.263C223.922 134.952 225.322 134.623 226.601 134.278C227.914 133.932 228.917 133.534 229.608 133.085L228.26 141.536C227.776 144.336 226.635 146.842 224.838 149.054C223.075 151.266 220.828 153.029 218.098 154.342ZM300.757 201.523C293.568 201.523 287.571 200.538 282.766 198.567C277.996 196.632 274.367 193.988 271.878 190.635C269.424 187.282 268.076 183.515 267.834 179.332L288.78 176.584C289.161 178.209 289.886 179.713 290.958 181.095C292.064 182.478 293.637 183.584 295.676 184.413C297.75 185.243 300.428 185.658 303.712 185.658C308.517 185.658 312.699 184.482 316.259 182.132C319.819 179.816 322.014 175.928 322.844 170.467L325.228 155.898H324.295C322.982 158.11 321.184 160.201 318.903 162.171C316.657 164.141 313.909 165.748 310.66 166.993C307.445 168.237 303.729 168.859 299.513 168.859C293.498 168.859 288.279 167.477 283.855 164.712C279.465 161.912 276.285 157.643 274.315 151.905C272.38 146.133 272.138 138.84 273.589 130.026C275.11 121.005 277.841 113.47 281.781 107.421C285.721 101.372 290.388 96.8444 295.78 93.8373C301.172 90.8302 306.788 89.3266 312.63 89.3266C317.089 89.3266 320.683 90.087 323.414 91.6079C326.179 93.0941 328.305 94.9606 329.791 97.2073C331.277 99.4194 332.331 101.597 332.954 103.74H333.835L336.013 90.3636H357.944L344.567 170.778C343.496 177.587 340.921 183.255 336.842 187.783C332.798 192.346 327.665 195.768 321.444 198.049C315.222 200.365 308.327 201.523 300.757 201.523ZM309.052 152.268C312.578 152.268 315.741 151.387 318.54 149.624C321.375 147.827 323.742 145.269 325.643 141.951C327.544 138.598 328.875 134.589 329.635 129.923C330.396 125.256 330.379 121.212 329.584 117.79C328.823 114.334 327.337 111.655 325.125 109.754C322.947 107.853 320.078 106.903 316.518 106.903C312.854 106.903 309.64 107.888 306.875 109.858C304.11 111.793 301.811 114.49 299.979 117.946C298.182 121.402 296.92 125.395 296.194 129.923C295.434 134.52 295.399 138.494 296.091 141.847C296.817 145.165 298.251 147.74 300.394 149.572C302.537 151.37 305.423 152.268 309.052 152.268ZM385.464 166.371C390.787 169.827 397.51 171.555 405.632 171.555C413.617 171.555 420.789 169.862 427.149 166.474C433.508 163.052 438.779 158.283 442.962 152.165C447.144 146.047 449.909 138.927 451.257 130.804C452.605 122.543 452.19 115.302 450.013 109.08C447.835 102.859 444.085 98.0196 438.762 94.5631C433.439 91.0721 426.734 89.3266 418.646 89.3266C410.627 89.3266 403.42 91.0376 397.026 94.4594C390.631 97.8467 385.36 102.599 381.212 108.717C377.065 114.835 374.334 121.973 373.021 130.13C371.673 138.391 372.07 145.632 374.213 151.854C376.391 158.041 380.141 162.88 385.464 166.371ZM417.712 151.283C414.844 153.392 411.543 154.446 407.81 154.446C404.18 154.446 401.312 153.426 399.203 151.387C397.095 149.313 395.729 146.496 395.107 142.936C394.485 139.341 394.537 135.263 395.263 130.7C396.023 125.999 397.354 121.8 399.255 118.101C401.156 114.403 403.558 111.5 406.462 109.391C409.365 107.248 412.683 106.177 416.416 106.177C420.046 106.177 422.897 107.214 424.971 109.288C427.079 111.361 428.462 114.196 429.119 117.79C429.775 121.351 429.724 125.429 428.963 130.026C428.203 134.692 426.855 138.875 424.919 142.573C423.018 146.237 420.616 149.14 417.712 151.283ZM496.25 123.96L488.576 170H466.542L479.814 90.3636H500.812L498.531 104.414H499.412C501.935 99.7478 505.496 96.0667 510.093 93.3707C514.724 90.6746 519.995 89.3266 525.906 89.3266C531.436 89.3266 536.051 90.5364 539.749 92.9559C543.482 95.3754 546.109 98.8145 547.63 103.273C549.185 107.732 549.444 113.072 548.407 119.294L539.904 170H517.818L525.647 123.234C526.442 118.361 525.82 114.559 523.78 111.828C521.775 109.063 518.544 107.68 514.085 107.68C511.112 107.68 508.382 108.32 505.893 109.599C503.404 110.878 501.313 112.744 499.62 115.198C497.961 117.618 496.837 120.538 496.25 123.96ZM667.841 63.8181L650.213 170H628.127L645.754 63.8181H667.841ZM676.191 199.19C678.541 199.639 681.134 199.864 683.968 199.864C689.395 199.864 694.182 198.982 698.33 197.219C702.512 195.491 706.124 193.037 709.165 189.857C712.242 186.677 714.903 182.927 717.15 178.606L762.723 90.3636H761.734L745.043 121.419L752.664 103.977L739.153 128.921L750.803 103.382L736.283 129.881L746.301 109.451L736.906 126.327L742.43 113.844L736.519 124.327L746.151 101.897L728.99 135.059L739.166 110.925L728.761 129.356L742.429 100.708L725.347 132.019L735.995 109.913L726.048 126.613L731.716 115.287L727.214 121.355L738.772 90.3636H738.511L712.121 148.95H711.291L704.551 90.3636H682.153L697.085 172.126L695.115 175.496C693.698 177.95 692.143 179.713 690.449 180.784C688.755 181.856 686.889 182.374 684.849 182.339C682.845 182.305 680.615 181.89 678.161 181.095L670.384 197.582C671.905 198.239 673.841 198.775 676.191 199.19Z" fill="#4A52FF"/>
<path d="M738.908 90L761.908 90.04L745.043 121.419L752.664 103.977L739.153 128.921L750.803 103.382L736.283 129.881L746.302 109.451L736.906 126.327L742.43 113.844L736.519 124.327L746.151 101.897L728.991 135.059L739.166 110.925L728.761 129.356L742.429 100.708L725.348 132.019L735.996 109.913L726.049 126.613L731.716 115.287L727.215 121.355L738.908 90Z" fill="url(#paint7_linear_357_17797)"/>
<path d="M730.408 103.297C730.408 103.297 752.148 57.9629 753.385 55.0966C754.621 52.2303 748.148 58.4625 748.148 58.4625L730.408 103.297Z" fill="#4A52FF"/>
<path d="M731.408 116.643C731.408 116.643 754.595 72.031 755.923 69.2059C757.252 66.3809 750.581 72.4016 750.581 72.4016L731.408 116.643Z" fill="#4A52FF"/>
<path d="M754.117 114.894C754.117 114.894 775.407 69.41 776.817 66.6259C778.227 63.8418 776.92 72.41 776.92 72.41L754.117 114.894Z" fill="#4A52FF"/>
<path d="M741.117 121.894C741.117 121.894 762.407 76.41 763.817 73.6259C765.227 70.8418 763.92 79.41 763.92 79.41L741.117 121.894Z" fill="#4A52FF"/>
<defs>
<linearGradient id="paint0_linear_357_17797" x1="767.308" y1="41.8354" x2="779.071" y2="45.6385" gradientUnits="userSpaceOnUse">
<stop stop-color="#FE5A5A"/>
<stop offset="1" stop-color="#FE5A5A" stop-opacity="0.6"/>
</linearGradient>
<linearGradient id="paint1_linear_357_17797" x1="757.083" y1="71.167" x2="762.304" y2="73.338" gradientUnits="userSpaceOnUse">
<stop stop-color="#FE5A5A"/>
<stop offset="1" stop-color="#FE5A5A" stop-opacity="0.6"/>
</linearGradient>
<linearGradient id="paint2_linear_357_17797" x1="776.8" y1="18.1856" x2="788.634" y2="20.8772" gradientUnits="userSpaceOnUse">
<stop stop-color="#FE5A5A"/>
<stop offset="1" stop-color="#FE5A5A" stop-opacity="0.6"/>
</linearGradient>
<linearGradient id="paint3_linear_357_17797" x1="790.366" y1="19.523" x2="804.429" y2="20.5892" gradientUnits="userSpaceOnUse">
<stop stop-color="#4AC9FF"/>
<stop offset="1" stop-color="#4AC9FF" stop-opacity="0.6"/>
</linearGradient>
<linearGradient id="paint4_linear_357_17797" x1="-6.06209e-08" y1="4.33299" x2="14.0631" y2="5.39913" gradientUnits="userSpaceOnUse">
<stop stop-color="#FFAC4A"/>
<stop offset="1" stop-color="#FFAC4A" stop-opacity="0.6"/>
</linearGradient>
<linearGradient id="paint5_linear_357_17797" x1="782.465" y1="34.064" x2="793.716" y2="34.9169" gradientUnits="userSpaceOnUse">
<stop stop-color="#4A52FF"/>
<stop offset="1" stop-color="#4A52FF" stop-opacity="0.6"/>
</linearGradient>
<linearGradient id="paint6_linear_357_17797" x1="-4.84967e-08" y1="3.46639" x2="11.2505" y2="4.31931" gradientUnits="userSpaceOnUse">
<stop stop-color="#FF77C9"/>
<stop offset="1" stop-color="#FF77C9" stop-opacity="0.6"/>
</linearGradient>
<linearGradient id="paint7_linear_357_17797" x1="747.55" y1="92.1943" x2="733.41" y2="136.47" gradientUnits="userSpaceOnUse">
<stop offset="0.291667" stop-color="#4A52FF" stop-opacity="0"/>
<stop offset="1" stop-color="#4A52FF"/>
</linearGradient>
</defs>
</svg>
